<?xml version="1.0" encoding="UTF-8" standalone="no"?>
<!-- Created with Inkscape (http://www.inkscape.org/) -->

<svg
   version="1.1"
   id="svg3843"
   xml:space="preserve"
   width="682.66669"
   height="682.66669"
   viewBox="0 0 682.66669 682.66669"
   xmlns="http://www.w3.org/2000/svg"
   xmlns:svg="http://www.w3.org/2000/svg"><defs
     id="defs3847"><clipPath
       clipPathUnits="userSpaceOnUse"
       id="clipPath3857"><path
         d="M 0,512 H 512 V 0 H 0 Z"
         id="path3855" /></clipPath></defs><g
     id="g3849"
     transform="matrix(1.3333333,0,0,-1.3333333,0,682.66667)"><g
       id="g3851"><g
         id="g3853"
         clip-path="url(#clipPath3857)"><g
           id="g3859"
           transform="translate(488.293,386.2314)"><path
             d="m 0,0 c 0,0 -33.759,3.478 -58.049,15.173 -28.139,13.55 -47.383,35.596 -47.383,35.596 0,0 -19.245,-22.046 -47.383,-35.596 C -177.105,3.478 -210.864,0 -210.864,0 c 0,0 -17.38,-145.433 105.432,-215.428 C 17.381,-145.433 0,0 0,0 Z"
             style="fill:none;stroke:#000000;stroke-width:30;stroke-linecap:round;stroke-linejoin:round;stroke-miterlimit:10;stroke-dasharray:none;stroke-opacity:1"
             id="path3861" /></g><g
           id="g3863"
           transform="translate(344.5273,308.125)"><path
             d="M 0,0 36.856,-36.855 93.138,28.41"
             style="fill:none;stroke:#000000;stroke-width:30;stroke-linecap:round;stroke-linejoin:round;stroke-miterlimit:10;stroke-dasharray:none;stroke-opacity:1"
             id="path3865" /></g><g
           id="g3867"
           transform="translate(382.8613,110.8896)"><path
             d="M 0,0 V 59.91"
             style="fill:none;stroke:#000000;stroke-width:30;stroke-linecap:round;stroke-linejoin:round;stroke-miterlimit:10;stroke-dasharray:none;stroke-opacity:1"
             id="path3869" /></g><g
           id="g3871"
           transform="translate(286.9609,15)"><path
             d="M 0,0 H -264.1 V 79.05 395.89 482 h 360 v -60"
             style="fill:none;stroke:#000000;stroke-width:30;stroke-linecap:round;stroke-linejoin:round;stroke-miterlimit:10;stroke-dasharray:none;stroke-opacity:1"
             id="path3873" /></g><g
           id="g3875"
           transform="translate(286.9609,15)"><path
             d="M 0,0 V 95.89 H 95.9"
             style="fill:none;stroke:#000000;stroke-width:30;stroke-linecap:round;stroke-linejoin:round;stroke-miterlimit:10;stroke-dasharray:none;stroke-opacity:1"
             id="path3877" /></g><g
           id="g3879"
           transform="translate(382.8574,110.8945)"><path
             d="M 0,0 -95.894,-95.895"
             style="fill:none;stroke:#000000;stroke-width:30;stroke-linecap:round;stroke-linejoin:round;stroke-miterlimit:10;stroke-dasharray:none;stroke-opacity:1"
             id="path3881" /></g><path
           d="m 142.861,377 h -60 v 60 h 60 z"
           style="fill:none;stroke:#000000;stroke-width:30;stroke-linecap:round;stroke-linejoin:round;stroke-miterlimit:10;stroke-dasharray:none;stroke-opacity:1"
           id="path3883" /><path
           d="m 142.861,257 h -60 v 60 h 60 z"
           style="fill:none;stroke:#000000;stroke-width:30;stroke-linecap:round;stroke-linejoin:round;stroke-miterlimit:10;stroke-dasharray:none;stroke-opacity:1"
           id="path3885" /><path
           d="m 142.861,137 h -60 v 60 h 60 z"
           style="fill:none;stroke:#000000;stroke-width:30;stroke-linecap:round;stroke-linejoin:round;stroke-miterlimit:10;stroke-dasharray:none;stroke-opacity:1"
           id="path3887" /></g></g></g></svg>
