<svg id="svg11" clip-rule="evenodd" fill-rule="evenodd" height="512" stroke-linejoin="round" stroke-miterlimit="2" viewBox="0 0 32 32" width="512" xmlns="http://www.w3.org/2000/svg" xmlns:svg="http://www.w3.org/2000/svg"><path id="path4" d="m25.999071 29.999916h2.999986c.551998 0 .999995-.448.999995-.999999v-2.999995c0-.551999-.447997-.999999-.999995-.999999-.551997 0-.999995.448-.999995.999999v1.999997h-1.999991c-.551997 0-.999995.447999-.999995.999998s.447998.999999.999995.999999zm-19.9999058-1.999997h-1.9999906v-1.999997c0-.551999-.4479979-.999999-.9999953-.999999s-.9999953.448-.9999953.999999v2.999995c0 .551999.4479979.999999.9999953.999999h2.9999859c.5519974 0 .9999953-.448.9999953-.999999s-.4479979-.999998-.9999953-.999998zm9.9999528-5.332992c1.673992 0 2.745987-.462999 3.712983-.934999.717996-.350999 1.349993-.731998 2.286989-.731998.218999 0 .488998.207999.778996.498999.656997.659999 1.220995 1.830997 1.220995 3.500994 0 .551999.447997.999999.999995.999999.551997 0 .999995-.448.999995-.999999 0-2.773995-1.212994-4.534993-2.312989-5.354991-.611997-.458-1.226994-.644999-1.686992-.644999-1.060995 0-1.858991.302999-2.653988.684999-.887995.425999-1.772991.981998-3.345984.981998-.551997 0-.999995.447999-.999995.999999 0 .551999.447998.999998.999995.999998zm-6.1749708-1.568998c.078-.052.1749992-.069.2659988-.046.113999.059.286999.143999.389998.205999.394998.24.792996.509999 1.103995.651999.502998.229 1.095995.007 1.324994-.494999.228999-.502999.007-1.095998-.494998-1.324998-.319998-.145-.738996-.459999-1.140995-.684999-.455997-.255-.909995-.404999-1.2739936-.404999-.4659978 0-1.0929949.207999-1.711992.701999-1.0959948.872998-2.2879892 2.699995-2.2879892 5.297991 0 .551999.4479979.999999.9999953.999999s.9999953-.448.9999953-.999999c0-1.573997.5779973-2.764995 1.2369942-3.459994.1249994-.131.4109981-.326.5879972-.442zm-.7759963-10.097984h-4.048981c-.5519974 0-.9999953.448-.9999953.999999s.4479979.999998.9999953.999998h4.4829789c.4539979 1.418998 1.2069942 2.801996 2.1609902 3.867994 1.167994 1.305998 2.630987 2.131997 4.18898 2.131997s3.021986-.825999 4.18998-2.131997c.952996-1.065998 1.705992-2.448996 2.16099-3.867994h4.815978c.551997 0 .999995-.447999.999995-.999998s-.447998-.999999-.999995-.999999h-4.38198c.032-.296999.049-.589999.049-.874998 0-3.9459943-3.075986-7.1249893-6.833968-7.1249893-3.756982 0-6.8329679 3.178995-6.8329679 7.1249893 0 .284999.017.577999.049.874998zm11.5559461 0c.041-.296999.062-.590999.062-.874998 0-2.814996-2.15199-5.1249924-4.833977-5.1249924-2.680987 0-4.832977 2.3099964-4.832977 5.1249924 0 .283999.021.577999.061.874998h4.938977c.551998 0 .999996.448.999996.999999s-.447998.999998-.999996.999998h-4.402979c.371998.933999.899996 1.821997 1.536993 2.534996.763996.852999 1.681992 1.464998 2.698987 1.464998 1.017995 0 1.935991-.611999 2.698987-1.464998.637997-.712999 1.165995-1.600997 1.537993-2.534996h-.07c-.551997 0-.999995-.447999-.999995-.999998s.447998-.999999.999995-.999999zm5.394974-6.9999889h1.999991v1.9999969c0 .5519991.447998.9999984.999995.9999984.551998 0 .999995-.4479993.999995-.9999984v-2.9999953c0-.5519992-.447997-.9999985-.999995-.9999985h-2.999986c-.551997 0-.999995.4479993-.999995.9999985 0 .5519991.447998.9999984.999995.9999984zm-19.9999058-1.9999969h-2.9999859c-.5519974 0-.9999953.4479993-.9999953.9999985v2.9999953c0 .5519991.4479979.9999984.9999953.9999984s.9999953-.4479993.9999953-.9999984v-1.9999969h1.9999906c.5519974 0 .9999953-.4479993.9999953-.9999984 0-.5519992-.4479979-.9999985-.9999953-.9999985z"/></svg>