<svg id="a" height="512" viewBox="0 0 24 24" width="512" xmlns="http://www.w3.org/2000/svg"><path d="m6.125 10.375v6c0 1.8682 1.0059 3.6113 2.6255 4.5479.3584.2075.481.6665.2739 1.0249-.1392.2402-.3911.3745-.6499.3745-.1279 0-.2568-.0322-.375-.1006-2.0815-1.2046-3.3745-3.4448-3.3745-5.8467v-6c0-.4141.3359-.75.75-.75s.75.3359.75.75zm-3.75 4.3203c.4141 0 .75-.3359.75-.75v-3.2964c0-3.9648 2.9717-7.2627 6.7656-7.5083 1.4487-.0894 2.8691.2363 4.1089.9536.3584.2085.8179.0854 1.0244-.2734.2075-.3584.0854-.8174-.2734-1.0244-1.4971-.8672-3.2148-1.2646-4.9565-1.1528-4.5806.2968-8.169 4.2524-8.169 9.0053v3.2964c0 .4141.3359.75.75.75zm20 2.6797c0 2.7614-2.2386 5-5 5s-5-2.2386-5-5 2.2386-5 5-5 5 2.2386 5 5zm-2.6465-1.687c-.1953-.1953-.5117-.1953-.707 0l-2.313 2.3135-.98-.98c-.1953-.1953-.5117-.1953-.707 0s-.1953.5117 0 .707l1.3335 1.3335c.0938.0938.2207.1465.3535.1465s.2598-.0527.3535-.1465l2.6665-2.667c.1953-.1953.1953-.5117 0-.707zm-3.6123-5.1935c-.0478-3.0103-2.301-5.5682-5.1787-5.8427-2.0264-.1924-3.9492.6572-5.1621 2.2729-.249.3311-.1821.8013.1494 1.0498.3306.249.8008.1826 1.0498-.1494.8975-1.1943 2.3247-1.8213 3.8203-1.6802 2.1479.2051 3.8301 2.1572 3.8301 4.4448v.3497c.4724-.2026.9725-.3503 1.4912-.445zm-2.9912 1.3314v-1.3439c0-1.3955-.9863-2.6074-2.2939-2.8198-.8052-.1304-1.6216.0942-2.2373.6177-.6157.5239-.9688 1.2876-.9688 2.0952v4c0 3.3059 1.8438 6.1883 4.5562 7.6762-.8605-.9547-1.4613-2.1435-1.6934-3.4614-.854-1.1893-1.3628-2.6423-1.3628-4.2148v-4c0-.3672.1606-.7144.4409-.9526.2832-.2422.6465-.3413 1.0249-.2798.5894.0957 1.0342.6714 1.0342 1.3394v2.9115c.4154-.598.9233-1.1248 1.5-1.5676zm3.8042-6.1003c-.3584.2075-.481.6665-.2739 1.0249.6343 1.0967.9697 2.3501.9697 3.6245v.0126c.5164.0184 1.0177.093 1.5.2178v-.2304c0-1.5381-.4048-3.0508-1.1709-4.3755-.2075-.3584-.6675-.4814-1.0249-.2739z"/></svg>