<svg clip-rule="evenodd" fill-rule="evenodd" height="512" stroke-linejoin="round" stroke-miterlimit="2" viewBox="0 0 24 24" width="512" xmlns="http://www.w3.org/2000/svg"><g id="Icon"><path d="m12.5 14.75c.414 0 .75.336.75.75s-.336.75-.75.75h-7c-.414 0-.75-.336-.75-.75s.336-.75.75-.75z"/><path d="m7 22.75c-.414 0-.75-.336-.75-.75s.336-.75.75-.75h4c.414 0 .75.336.75.75s-.336.75-.75.75z"/><path d="m14.648 11.678c.178-.374.626-.533 1-.355.373.177.532.625.355.999-.508 1.067-1.252 2-2.165 2.731-.003.003-.006.005-.009.007-.292.227-.467.573-.476.942 0 .012 0 .023-.001.034-.032.456-.043.963-.05 1.248-.006.269-.074.533-.199.771l-.658 1.257c-.302.576-.899.938-1.55.938h-3.79c-.651 0-1.248-.362-1.55-.938l-.658-1.257c-.125-.238-.193-.502-.199-.771l-.031-1.299c-.009-.379-.19-.734-.492-.964-.002-.002-.004-.004-.007-.005-1.787-1.395-2.918-3.574-2.918-6.016 0-4.277 3.473-7.75 7.75-7.75 1.189 0 2.315.268 3.322.747.374.178.533.626.355 1-.177.374-.625.533-.999.355-.812-.386-1.72-.602-2.678-.602-3.449 0-6.25 2.801-6.25 6.25 0 1.961.906 3.713 2.334 4.828.665.506 1.063 1.286 1.083 2.121l.03 1.3c.001.038.011.076.029.11l.658 1.257c.043.082.128.134.221.134h3.79c.093 0 .178-.052.221-.134l.658-1.257c.018-.034.028-.072.029-.11.007-.298.019-.824.051-1.288.021-.815.405-1.577 1.047-2.079.737-.59 1.338-1.343 1.747-2.204z"/><path d="m5.97 11.03c-.293-.292-.293-.768 0-1.06.292-.293.767-.293 1.06 0l1.97 1.969 1.97-1.969c.292-.293.767-.293 1.06 0 .293.292.293.768 0 1.06l-2.5 2.5c-.293.293-.767.293-1.06 0z"/><path d="m8.25 13c0-.414.336-.75.75-.75s.75.336.75.75v2.5c0 .414-.336.75-.75.75s-.75-.336-.75-.75z"/><circle cx="17.861" cy="6.375" r="1.5"/><path d="m19.396 1.794s.355.855.354.855c.135.068.266.144.393.226l.918-.12c.248-.032.497.062.662.251.436.5.771 1.081.987 1.709.081.237.038.5-.115.699 0 0-.562.735-.562.734.008.151.008.303 0 .453l.562.735c.153.199.196.462.115.699-.216.628-.551 1.209-.987 1.709-.165.189-.414.283-.662.251 0 0-.918-.12-.917-.121-.127.083-.259.159-.393.227l-.355.855c-.096.232-.302.4-.548.448-.652.128-1.322.128-1.974 0-.246-.048-.452-.216-.548-.448 0 0-.355-.855-.354-.855-.135-.068-.267-.144-.393-.226l-.918.12c-.249.032-.497-.062-.662-.251-.437-.5-.772-1.081-.987-1.709-.081-.237-.038-.5.114-.699 0 0 .563-.735.563-.734-.008-.151-.008-.303 0-.453l-.563-.735c-.152-.199-.195-.462-.114-.699.215-.628.55-1.209.987-1.709.165-.189.413-.283.662-.251 0 0 .918.12.917.121.127-.083.258-.159.393-.227l.355-.855c.096-.232.302-.4.548-.448.652-.128 1.322-.128 1.974 0 .246.048.452.216.548.448zm-1.222.97c-.208-.018-.418-.019-.626 0l-.304.731c-.076.183-.222.329-.406.405-.218.09-.422.208-.609.352-.157.121-.357.174-.554.149 0 0-.785-.103-.785-.103-.12.172-.225.353-.313.543l.481.628c.121.158.174.358.148.555-.031.233-.031.469 0 .702.026.197-.027.397-.148.555 0 0-.481.628-.481.629.088.189.193.371.313.542l.785-.103c.197-.025.397.028.554.149.187.144.391.262.609.352.184.076.33.222.406.405 0 0 .304.731.304.731.208.019.418.019.626 0l.304-.731c.076-.183.222-.329.406-.405.217-.09.422-.208.609-.352.157-.121.357-.174.554-.149 0 0 .785.103.785.103.12-.172.225-.353.313-.543l-.481-.628c-.121-.158-.174-.358-.148-.555.03-.233.03-.469 0-.702-.026-.197.027-.397.148-.555 0 0 .481-.628.481-.629-.089-.189-.193-.371-.313-.542l-.785.103c-.197.025-.397-.028-.554-.149-.187-.144-.392-.262-.609-.352-.184-.076-.33-.222-.406-.405z"/></g></svg>