<svg xmlns="http://www.w3.org/2000/svg" version="1.1" xmlns:xlink="http://www.w3.org/1999/xlink" xmlns:svgjs="http://svgjs.com/svgjs" width="512" height="512" x="0" y="0" viewBox="0 0 682.667 682.667" style="enable-background:new 0 0 512 512" xml:space="preserve"><g><defs><clipPath id="a" clipPathUnits="userSpaceOnUse"><path d="M0 512h512V0H0Z" fill="#000000" data-original="#000000"></path></clipPath></defs><g clip-path="url(#a)" transform="matrix(1.33333 0 0 -1.33333 0 682.667)"><path d="M0 0v-80.333h96.4V0c17.746 0 32.133 14.388 32.133 32.133V48.2a80.325 80.325 0 0 1-23.53 56.803 80.305 80.305 0 0 1-56.803 23.53 80.309 80.309 0 0 1-56.804-23.53A80.328 80.328 0 0 1-32.133 48.2V32.133C-32.133 14.388-17.746 0 0 0Z" style="stroke-linecap: round; stroke-linejoin: round; stroke-miterlimit: 10; stroke-dasharray: none; stroke-opacity: 1;" transform="translate(47.133 95.334)" fill="none" stroke="#000000" stroke-width="30px" stroke-linecap="round" stroke-linejoin="round" stroke-miterlimit="10" stroke-dasharray="none" stroke-opacity="" data-original="#000000"></path><path d="M0 0h96.4v128.533c17.746 0 32.134 14.388 32.134 32.134v64.266c0 44.369-35.966 80.334-80.334 80.334s-80.333-35.965-80.333-80.334v-64.266c0-17.746 14.388-32.134 32.133-32.134z" style="stroke-linecap: round; stroke-linejoin: round; stroke-miterlimit: 10; stroke-dasharray: none; stroke-opacity: 1;" transform="translate(207.8 15)" fill="none" stroke="#000000" stroke-width="30px" stroke-linecap="round" stroke-linejoin="round" stroke-miterlimit="10" stroke-dasharray="none" stroke-opacity="" data-original="#000000"></path><path d="M0 0h96.4v176.733a32.134 32.134 0 0 1 22.718 9.415 32.112 32.112 0 0 1 9.415 22.719v112.466c0 44.369-35.965 80.334-80.333 80.334-44.368 0-80.333-35.965-80.333-80.334V208.867a32.112 32.112 0 0 1 9.415-22.719A32.134 32.134 0 0 1 0 176.733z" style="stroke-linecap: round; stroke-linejoin: round; stroke-miterlimit: 10; stroke-dasharray: none; stroke-opacity: 1;" transform="translate(368.467 15)" fill="none" stroke="#000000" stroke-width="30px" stroke-linecap="round" stroke-linejoin="round" stroke-miterlimit="10" stroke-dasharray="none" stroke-opacity="" data-original="#000000"></path><path d="M0 0c22.172 0 40.167-17.995 40.167-40.167 0-22.164-17.995-40.166-40.167-40.166s-40.167 18.002-40.167 40.166C-40.167-17.995-22.172 0 0 0Z" style="stroke-linecap: round; stroke-linejoin: round; stroke-miterlimit: 10; stroke-dasharray: none; stroke-opacity: 1;" transform="translate(95.334 304.2)" fill="none" stroke="#000000" stroke-width="30px" stroke-linecap="round" stroke-linejoin="round" stroke-miterlimit="10" stroke-dasharray="none" stroke-opacity="" data-original="#000000"></path><path d="M0 0c22.172 0 40.167-17.995 40.167-40.167 0-22.164-17.995-40.166-40.167-40.166s-40.167 18.002-40.167 40.166C-40.167-17.995-22.172 0 0 0Z" style="stroke-linecap: round; stroke-linejoin: round; stroke-miterlimit: 10; stroke-dasharray: none; stroke-opacity: 1;" transform="translate(256 400.6)" fill="none" stroke="#000000" stroke-width="30px" stroke-linecap="round" stroke-linejoin="round" stroke-miterlimit="10" stroke-dasharray="none" stroke-opacity="" data-original="#000000"></path><path d="M0 0c22.172 0 40.167-17.995 40.167-40.167 0-22.164-17.995-40.166-40.167-40.166s-40.167 18.002-40.167 40.166C-40.167-17.995-22.172 0 0 0Z" style="stroke-linecap: round; stroke-linejoin: round; stroke-miterlimit: 10; stroke-dasharray: none; stroke-opacity: 1;" transform="translate(416.666 497)" fill="none" stroke="#000000" stroke-width="30px" stroke-linecap="round" stroke-linejoin="round" stroke-miterlimit="10" stroke-dasharray="none" stroke-opacity="" data-original="#000000"></path></g></g></svg>